<mxfile host="app.diagrams.net" modified="2020-08-27T06:04:27.106Z" agent="5.0 (X11)" etag="qyDAjxpGRJzGiSQeYroQ" version="13.6.5" type="github">
  <diagram id="ezGaTpR-AKmtANGIafnU" name="Page-1">
    <mxGraphModel dx="1422" dy="1848" grid="1" gridSize="10" guides="1" tooltips="1" connect="1" arrows="1" fold="1" page="1" pageScale="1" pageWidth="850" pageHeight="1100" math="0" shadow="0">
      <root>
        <mxCell id="0" />
        <mxCell id="1" parent="0" />
        <mxCell id="fG3WsD9q_cIxLBwufDan-1" value="" style="ellipse;html=1;shape=startState;fillColor=#000000;strokeColor=#ff0000;" parent="1" vertex="1">
          <mxGeometry x="400" y="-830" width="30" height="30" as="geometry" />
        </mxCell>
        <mxCell id="fG3WsD9q_cIxLBwufDan-2" value="" style="edgeStyle=orthogonalEdgeStyle;html=1;verticalAlign=bottom;endArrow=open;endSize=8;strokeColor=#ff0000;" parent="1" source="fG3WsD9q_cIxLBwufDan-1" target="fG3WsD9q_cIxLBwufDan-3" edge="1">
          <mxGeometry relative="1" as="geometry">
            <mxPoint x="415" y="-740" as="targetPoint" />
          </mxGeometry>
        </mxCell>
        <mxCell id="fG3WsD9q_cIxLBwufDan-3" value="Pizza zufällig auswählen" style="rounded=1;whiteSpace=wrap;html=1;arcSize=40;fontColor=#000000;fillColor=#ffffc0;strokeColor=#ff0000;" parent="1" vertex="1">
          <mxGeometry x="355" y="-730" width="120" height="40" as="geometry" />
        </mxCell>
        <mxCell id="fG3WsD9q_cIxLBwufDan-4" value="" style="edgeStyle=orthogonalEdgeStyle;html=1;verticalAlign=bottom;endArrow=open;endSize=8;strokeColor=#ff0000;" parent="1" source="fG3WsD9q_cIxLBwufDan-3" target="fG3WsD9q_cIxLBwufDan-5" edge="1">
          <mxGeometry relative="1" as="geometry">
            <mxPoint x="415" y="-650" as="targetPoint" />
          </mxGeometry>
        </mxCell>
        <mxCell id="fG3WsD9q_cIxLBwufDan-5" value="5 Exemplare von der gleichen (zufälligen) Pizza nehmen" style="rounded=1;whiteSpace=wrap;html=1;arcSize=40;fontColor=#000000;fillColor=#ffffc0;strokeColor=#ff0000;" parent="1" vertex="1">
          <mxGeometry x="337.5" y="-650" width="155" height="60" as="geometry" />
        </mxCell>
        <mxCell id="fG3WsD9q_cIxLBwufDan-6" value="Auf sichtbare Gefrierschäden überprüfen" style="rounded=1;whiteSpace=wrap;html=1;arcSize=40;fontColor=#000000;fillColor=#ffffc0;strokeColor=#ff0000;" parent="1" vertex="1">
          <mxGeometry x="347.5" y="-550" width="135" height="50" as="geometry" />
        </mxCell>
        <mxCell id="fG3WsD9q_cIxLBwufDan-8" value="" style="edgeStyle=orthogonalEdgeStyle;html=1;verticalAlign=bottom;endArrow=open;endSize=8;strokeColor=#ff0000;" parent="1" source="fG3WsD9q_cIxLBwufDan-5" target="fG3WsD9q_cIxLBwufDan-6" edge="1">
          <mxGeometry relative="1" as="geometry">
            <mxPoint x="425" y="-720" as="targetPoint" />
            <mxPoint x="425" y="-790" as="sourcePoint" />
          </mxGeometry>
        </mxCell>
        <mxCell id="fG3WsD9q_cIxLBwufDan-10" value="" style="edgeStyle=orthogonalEdgeStyle;html=1;verticalAlign=bottom;endArrow=open;endSize=8;strokeColor=#ff0000;" parent="1" source="fG3WsD9q_cIxLBwufDan-6" target="fG3WsD9q_cIxLBwufDan-12" edge="1">
          <mxGeometry relative="1" as="geometry">
            <mxPoint x="230" y="-440" as="targetPoint" />
            <mxPoint x="425" y="-790" as="sourcePoint" />
            <Array as="points">
              <mxPoint x="200" y="-525" />
            </Array>
          </mxGeometry>
        </mxCell>
        <mxCell id="fG3WsD9q_cIxLBwufDan-14" value="&lt;div&gt;[Keine Gefrierschäden&lt;/div&gt;&lt;div&gt;sichtbar]&lt;br&gt;&lt;/div&gt;" style="edgeLabel;html=1;align=center;verticalAlign=middle;resizable=0;points=[];" parent="fG3WsD9q_cIxLBwufDan-10" vertex="1" connectable="0">
          <mxGeometry x="-0.2052" y="-1" relative="1" as="geometry">
            <mxPoint x="8.5" y="1" as="offset" />
          </mxGeometry>
        </mxCell>
        <mxCell id="fG3WsD9q_cIxLBwufDan-12" value="Pizze bei 230° Celsius während 20 Minuten erhitzen" style="rounded=1;whiteSpace=wrap;html=1;arcSize=40;fontColor=#000000;fillColor=#ffffc0;strokeColor=#ff0000;" parent="1" vertex="1">
          <mxGeometry x="140" y="-480" width="120" height="50" as="geometry" />
        </mxCell>
        <mxCell id="fG3WsD9q_cIxLBwufDan-13" value="" style="edgeStyle=orthogonalEdgeStyle;html=1;verticalAlign=bottom;endArrow=open;endSize=8;strokeColor=#ff0000;" parent="1" source="fG3WsD9q_cIxLBwufDan-12" target="fG3WsD9q_cIxLBwufDan-25" edge="1">
          <mxGeometry relative="1" as="geometry">
            <mxPoint x="240" y="-340" as="targetPoint" />
            <Array as="points">
              <mxPoint x="200" y="-440" />
              <mxPoint x="200" y="-440" />
            </Array>
          </mxGeometry>
        </mxCell>
        <mxCell id="fG3WsD9q_cIxLBwufDan-15" value="Mitteilung an die Produktionsabteilung schicken" style="rounded=1;whiteSpace=wrap;html=1;arcSize=40;fontColor=#000000;fillColor=#ffffc0;strokeColor=#ff0000;" parent="1" vertex="1">
          <mxGeometry x="540" y="-480" width="120" height="50" as="geometry" />
        </mxCell>
        <mxCell id="fG3WsD9q_cIxLBwufDan-16" value="" style="edgeStyle=orthogonalEdgeStyle;html=1;verticalAlign=bottom;endArrow=open;endSize=8;strokeColor=#ff0000;" parent="1" source="fG3WsD9q_cIxLBwufDan-15" target="fG3WsD9q_cIxLBwufDan-20" edge="1">
          <mxGeometry relative="1" as="geometry">
            <mxPoint x="500" y="-390" as="targetPoint" />
            <Array as="points">
              <mxPoint x="600" y="-390" />
              <mxPoint x="600" y="-390" />
            </Array>
          </mxGeometry>
        </mxCell>
        <mxCell id="fG3WsD9q_cIxLBwufDan-22" value="&lt;div&gt;[Mehrere Pizze&lt;br&gt;&lt;/div&gt;&lt;div&gt;beschädigt]&lt;br&gt;&lt;/div&gt;" style="edgeLabel;html=1;align=center;verticalAlign=middle;resizable=0;points=[];" parent="fG3WsD9q_cIxLBwufDan-16" vertex="1" connectable="0">
          <mxGeometry x="-0.2593" y="1" relative="1" as="geometry">
            <mxPoint x="-1" y="-1" as="offset" />
          </mxGeometry>
        </mxCell>
        <mxCell id="fG3WsD9q_cIxLBwufDan-18" value="" style="edgeStyle=orthogonalEdgeStyle;html=1;verticalAlign=bottom;endArrow=open;endSize=8;strokeColor=#ff0000;" parent="1" source="fG3WsD9q_cIxLBwufDan-6" target="fG3WsD9q_cIxLBwufDan-15" edge="1">
          <mxGeometry relative="1" as="geometry">
            <mxPoint x="425" y="-720" as="targetPoint" />
            <mxPoint x="425" y="-790" as="sourcePoint" />
          </mxGeometry>
        </mxCell>
        <mxCell id="fG3WsD9q_cIxLBwufDan-19" value="&lt;div&gt;[Gefrierschäden&lt;/div&gt;&lt;div&gt;sichtbar]&lt;br&gt;&lt;/div&gt;" style="edgeLabel;html=1;align=center;verticalAlign=middle;resizable=0;points=[];" parent="fG3WsD9q_cIxLBwufDan-18" vertex="1" connectable="0">
          <mxGeometry x="-0.6656" y="3" relative="1" as="geometry">
            <mxPoint x="32.5" y="3" as="offset" />
          </mxGeometry>
        </mxCell>
        <mxCell id="fG3WsD9q_cIxLBwufDan-20" value="Geschäftsleitung informieren" style="rounded=1;whiteSpace=wrap;html=1;arcSize=40;fontColor=#000000;fillColor=#ffffc0;strokeColor=#ff0000;" parent="1" vertex="1">
          <mxGeometry x="540" y="-350" width="120" height="40" as="geometry" />
        </mxCell>
        <mxCell id="fG3WsD9q_cIxLBwufDan-21" value="" style="edgeStyle=orthogonalEdgeStyle;html=1;verticalAlign=bottom;endArrow=open;endSize=8;strokeColor=#ff0000;" parent="1" source="fG3WsD9q_cIxLBwufDan-20" target="fG3WsD9q_cIxLBwufDan-27" edge="1">
          <mxGeometry relative="1" as="geometry">
            <mxPoint x="510" y="-290" as="targetPoint" />
          </mxGeometry>
        </mxCell>
        <mxCell id="fG3WsD9q_cIxLBwufDan-23" value="" style="edgeStyle=orthogonalEdgeStyle;html=1;verticalAlign=bottom;endArrow=open;endSize=8;strokeColor=#ff0000;" parent="1" source="fG3WsD9q_cIxLBwufDan-15" target="fG3WsD9q_cIxLBwufDan-27" edge="1">
          <mxGeometry relative="1" as="geometry">
            <mxPoint x="460" y="-320" as="targetPoint" />
            <mxPoint x="610" y="-420" as="sourcePoint" />
            <Array as="points">
              <mxPoint x="490" y="-455" />
              <mxPoint x="490" y="-255" />
            </Array>
          </mxGeometry>
        </mxCell>
        <mxCell id="fG3WsD9q_cIxLBwufDan-24" value="&lt;div&gt;[Eine einzelne Pizza&lt;/div&gt;&lt;div&gt;beschädigt]&lt;br&gt;&lt;/div&gt;" style="edgeLabel;html=1;align=center;verticalAlign=middle;resizable=0;points=[];" parent="fG3WsD9q_cIxLBwufDan-23" vertex="1" connectable="0">
          <mxGeometry x="-0.2593" y="1" relative="1" as="geometry">
            <mxPoint x="-1" y="-1" as="offset" />
          </mxGeometry>
        </mxCell>
        <mxCell id="fG3WsD9q_cIxLBwufDan-25" value="Auf Essfertigkeit überprüfen" style="rounded=1;whiteSpace=wrap;html=1;arcSize=40;fontColor=#000000;fillColor=#ffffc0;strokeColor=#ff0000;" parent="1" vertex="1">
          <mxGeometry x="140" y="-370" width="120" height="40" as="geometry" />
        </mxCell>
        <mxCell id="fG3WsD9q_cIxLBwufDan-26" value="" style="edgeStyle=orthogonalEdgeStyle;html=1;verticalAlign=bottom;endArrow=open;endSize=8;strokeColor=#ff0000;" parent="1" source="fG3WsD9q_cIxLBwufDan-25" target="fG3WsD9q_cIxLBwufDan-42" edge="1">
          <mxGeometry relative="1" as="geometry">
            <mxPoint x="420" y="45" as="targetPoint" />
          </mxGeometry>
        </mxCell>
        <mxCell id="fG3WsD9q_cIxLBwufDan-46" value="&lt;div&gt;[Alle Pizze korrekt&lt;/div&gt;&lt;div&gt;gebacken]&lt;br&gt;&lt;/div&gt;" style="edgeLabel;html=1;align=center;verticalAlign=middle;resizable=0;points=[];" parent="fG3WsD9q_cIxLBwufDan-26" vertex="1" connectable="0">
          <mxGeometry x="-0.8018" y="-3" relative="1" as="geometry">
            <mxPoint as="offset" />
          </mxGeometry>
        </mxCell>
        <mxCell id="fG3WsD9q_cIxLBwufDan-27" value="" style="ellipse;html=1;shape=endState;fillColor=#000000;strokeColor=#ff0000;" parent="1" vertex="1">
          <mxGeometry x="585" y="-270" width="30" height="30" as="geometry" />
        </mxCell>
        <mxCell id="fG3WsD9q_cIxLBwufDan-28" value="Mitteilung an die Produktionsabteilung schicken" style="rounded=1;whiteSpace=wrap;html=1;arcSize=40;fontColor=#000000;fillColor=#ffffc0;strokeColor=#ff0000;" parent="1" vertex="1">
          <mxGeometry x="140" y="-260" width="120" height="50" as="geometry" />
        </mxCell>
        <mxCell id="fG3WsD9q_cIxLBwufDan-29" value="" style="edgeStyle=orthogonalEdgeStyle;html=1;verticalAlign=bottom;endArrow=open;endSize=8;strokeColor=#ff0000;" parent="1" source="fG3WsD9q_cIxLBwufDan-28" target="fG3WsD9q_cIxLBwufDan-31" edge="1">
          <mxGeometry relative="1" as="geometry">
            <mxPoint x="100" y="-140" as="targetPoint" />
            <Array as="points">
              <mxPoint x="200" y="-140" />
              <mxPoint x="200" y="-140" />
            </Array>
          </mxGeometry>
        </mxCell>
        <mxCell id="fG3WsD9q_cIxLBwufDan-30" value="&lt;div&gt;[Mehrere Pizze&lt;br&gt;&lt;/div&gt;&lt;div&gt;zu wenig/zu stark&lt;/div&gt;&lt;div&gt;gebacken]&lt;br&gt;&lt;/div&gt;" style="edgeLabel;html=1;align=center;verticalAlign=middle;resizable=0;points=[];" parent="fG3WsD9q_cIxLBwufDan-29" vertex="1" connectable="0">
          <mxGeometry x="-0.2593" y="1" relative="1" as="geometry">
            <mxPoint x="-1" y="-1" as="offset" />
          </mxGeometry>
        </mxCell>
        <mxCell id="fG3WsD9q_cIxLBwufDan-31" value="Geschäftsleitung informieren" style="rounded=1;whiteSpace=wrap;html=1;arcSize=40;fontColor=#000000;fillColor=#ffffc0;strokeColor=#ff0000;" parent="1" vertex="1">
          <mxGeometry x="140" y="-130" width="120" height="40" as="geometry" />
        </mxCell>
        <mxCell id="fG3WsD9q_cIxLBwufDan-32" value="" style="edgeStyle=orthogonalEdgeStyle;html=1;verticalAlign=bottom;endArrow=open;endSize=8;strokeColor=#ff0000;" parent="1" source="fG3WsD9q_cIxLBwufDan-31" edge="1">
          <mxGeometry relative="1" as="geometry">
            <mxPoint x="200" y="-60" as="targetPoint" />
            <Array as="points">
              <mxPoint x="200" y="-80" />
              <mxPoint x="200" y="-80" />
            </Array>
          </mxGeometry>
        </mxCell>
        <mxCell id="fG3WsD9q_cIxLBwufDan-33" value="" style="edgeStyle=orthogonalEdgeStyle;html=1;verticalAlign=bottom;endArrow=open;endSize=8;strokeColor=#ff0000;" parent="1" source="fG3WsD9q_cIxLBwufDan-28" target="fG3WsD9q_cIxLBwufDan-39" edge="1">
          <mxGeometry relative="1" as="geometry">
            <mxPoint x="140" y="-5" as="targetPoint" />
            <mxPoint x="210" y="-170" as="sourcePoint" />
            <Array as="points">
              <mxPoint x="90" y="-235" />
              <mxPoint x="90" y="-30" />
            </Array>
          </mxGeometry>
        </mxCell>
        <mxCell id="fG3WsD9q_cIxLBwufDan-34" value="&lt;div&gt;[Eine einzelne Pizza&lt;/div&gt;&lt;div&gt;zu wenig/zu stark&lt;/div&gt;&lt;div&gt;gebacken]&lt;br&gt;&lt;/div&gt;" style="edgeLabel;html=1;align=center;verticalAlign=middle;resizable=0;points=[];" parent="fG3WsD9q_cIxLBwufDan-33" vertex="1" connectable="0">
          <mxGeometry x="-0.2593" y="1" relative="1" as="geometry">
            <mxPoint x="-1" y="-1" as="offset" />
          </mxGeometry>
        </mxCell>
        <mxCell id="fG3WsD9q_cIxLBwufDan-37" value="" style="edgeStyle=orthogonalEdgeStyle;html=1;verticalAlign=bottom;endArrow=open;endSize=8;strokeColor=#ff0000;" parent="1" source="fG3WsD9q_cIxLBwufDan-25" target="fG3WsD9q_cIxLBwufDan-28" edge="1">
          <mxGeometry relative="1" as="geometry">
            <mxPoint x="408" y="-200" as="targetPoint" />
            <mxPoint x="270" y="-340" as="sourcePoint" />
          </mxGeometry>
        </mxCell>
        <mxCell id="fG3WsD9q_cIxLBwufDan-38" value="&lt;div&gt;[Pizze zu wenig/zu &lt;br&gt;&lt;/div&gt;&lt;div&gt;stark gebacken]&lt;/div&gt;" style="edgeLabel;html=1;align=center;verticalAlign=middle;resizable=0;points=[];" parent="fG3WsD9q_cIxLBwufDan-37" vertex="1" connectable="0">
          <mxGeometry x="-0.24" y="2" relative="1" as="geometry">
            <mxPoint as="offset" />
          </mxGeometry>
        </mxCell>
        <mxCell id="fG3WsD9q_cIxLBwufDan-39" value="&lt;div&gt;Zu wenig/zu stark&lt;/div&gt;&lt;div&gt;gebackenen Pizzen&lt;/div&gt;&lt;div&gt;aussortieren&lt;br&gt;&lt;/div&gt;" style="rounded=1;whiteSpace=wrap;html=1;arcSize=40;fontColor=#000000;fillColor=#ffffc0;strokeColor=#ff0000;" parent="1" vertex="1">
          <mxGeometry x="140" y="-60" width="120" height="60" as="geometry" />
        </mxCell>
        <mxCell id="fG3WsD9q_cIxLBwufDan-40" value="" style="edgeStyle=orthogonalEdgeStyle;html=1;verticalAlign=bottom;endArrow=open;endSize=8;strokeColor=#ff0000;" parent="1" source="fG3WsD9q_cIxLBwufDan-39" target="fG3WsD9q_cIxLBwufDan-42" edge="1">
          <mxGeometry relative="1" as="geometry">
            <mxPoint x="320" y="45" as="targetPoint" />
            <Array as="points">
              <mxPoint x="190" y="10" />
              <mxPoint x="320" y="10" />
            </Array>
          </mxGeometry>
        </mxCell>
        <mxCell id="fG3WsD9q_cIxLBwufDan-42" value="&lt;div&gt;Fehlerfreie Pizze auf&lt;/div&gt;&lt;div&gt;Geschmack testen&lt;br&gt;&lt;/div&gt;" style="rounded=1;whiteSpace=wrap;html=1;arcSize=40;fontColor=#000000;fillColor=#ffffc0;strokeColor=#ff0000;" parent="1" vertex="1">
          <mxGeometry x="280" y="40" width="120" height="40" as="geometry" />
        </mxCell>
        <mxCell id="fG3WsD9q_cIxLBwufDan-47" value="" style="edgeStyle=orthogonalEdgeStyle;html=1;verticalAlign=bottom;endArrow=open;endSize=8;strokeColor=#ff0000;" parent="1" source="fG3WsD9q_cIxLBwufDan-42" target="fG3WsD9q_cIxLBwufDan-48" edge="1">
          <mxGeometry relative="1" as="geometry">
            <mxPoint x="380" y="220" as="targetPoint" />
            <mxPoint x="380" y="160" as="sourcePoint" />
            <Array as="points">
              <mxPoint x="220" y="60" />
            </Array>
          </mxGeometry>
        </mxCell>
        <mxCell id="fG3WsD9q_cIxLBwufDan-56" value="&lt;div&gt;[Beanstandungen&lt;/div&gt;&lt;div&gt;vorhanden]&lt;br&gt;&lt;/div&gt;" style="edgeLabel;html=1;align=center;verticalAlign=middle;resizable=0;points=[];" parent="fG3WsD9q_cIxLBwufDan-47" vertex="1" connectable="0">
          <mxGeometry x="-0.3" y="3" relative="1" as="geometry">
            <mxPoint x="-18" y="-3" as="offset" />
          </mxGeometry>
        </mxCell>
        <mxCell id="fG3WsD9q_cIxLBwufDan-48" value="Mitteilung an die Produktionsabteilung schicken" style="rounded=1;whiteSpace=wrap;html=1;arcSize=40;fontColor=#000000;fillColor=#ffffc0;strokeColor=#ff0000;" parent="1" vertex="1">
          <mxGeometry x="160" y="120" width="120" height="50" as="geometry" />
        </mxCell>
        <mxCell id="fG3WsD9q_cIxLBwufDan-49" value="" style="edgeStyle=orthogonalEdgeStyle;html=1;verticalAlign=bottom;endArrow=open;endSize=8;strokeColor=#ff0000;" parent="1" source="fG3WsD9q_cIxLBwufDan-48" target="fG3WsD9q_cIxLBwufDan-51" edge="1">
          <mxGeometry relative="1" as="geometry">
            <mxPoint x="120" y="240" as="targetPoint" />
            <Array as="points">
              <mxPoint x="220" y="240" />
              <mxPoint x="220" y="240" />
            </Array>
          </mxGeometry>
        </mxCell>
        <mxCell id="fG3WsD9q_cIxLBwufDan-50" value="&lt;div&gt;[Mehrere Pizze&lt;br&gt;&lt;/div&gt;nicht gut]" style="edgeLabel;html=1;align=center;verticalAlign=middle;resizable=0;points=[];" parent="fG3WsD9q_cIxLBwufDan-49" vertex="1" connectable="0">
          <mxGeometry x="-0.2593" y="1" relative="1" as="geometry">
            <mxPoint x="-1" y="-1" as="offset" />
          </mxGeometry>
        </mxCell>
        <mxCell id="fG3WsD9q_cIxLBwufDan-51" value="Geschäftsleitung informieren" style="rounded=1;whiteSpace=wrap;html=1;arcSize=40;fontColor=#000000;fillColor=#ffffc0;strokeColor=#ff0000;" parent="1" vertex="1">
          <mxGeometry x="160" y="250" width="120" height="40" as="geometry" />
        </mxCell>
        <mxCell id="fG3WsD9q_cIxLBwufDan-52" value="" style="edgeStyle=orthogonalEdgeStyle;html=1;verticalAlign=bottom;endArrow=open;endSize=8;strokeColor=#ff0000;" parent="1" source="fG3WsD9q_cIxLBwufDan-51" target="fG3WsD9q_cIxLBwufDan-57" edge="1">
          <mxGeometry relative="1" as="geometry">
            <mxPoint x="220" y="320" as="targetPoint" />
            <Array as="points" />
          </mxGeometry>
        </mxCell>
        <mxCell id="fG3WsD9q_cIxLBwufDan-53" value="" style="edgeStyle=orthogonalEdgeStyle;html=1;verticalAlign=bottom;endArrow=open;endSize=8;strokeColor=#ff0000;" parent="1" source="fG3WsD9q_cIxLBwufDan-48" target="fG3WsD9q_cIxLBwufDan-57" edge="1">
          <mxGeometry relative="1" as="geometry">
            <mxPoint x="160" y="350" as="targetPoint" />
            <mxPoint x="230" y="210" as="sourcePoint" />
            <Array as="points">
              <mxPoint x="110" y="145" />
              <mxPoint x="110" y="350" />
            </Array>
          </mxGeometry>
        </mxCell>
        <mxCell id="fG3WsD9q_cIxLBwufDan-54" value="&lt;div&gt;[Eine einzelne Pizza&lt;/div&gt;&lt;div&gt;nicht gut]&lt;br&gt;&lt;/div&gt;" style="edgeLabel;html=1;align=center;verticalAlign=middle;resizable=0;points=[];" parent="fG3WsD9q_cIxLBwufDan-53" vertex="1" connectable="0">
          <mxGeometry x="-0.2593" y="1" relative="1" as="geometry">
            <mxPoint x="-1" y="-1" as="offset" />
          </mxGeometry>
        </mxCell>
        <mxCell id="fG3WsD9q_cIxLBwufDan-57" value="" style="ellipse;html=1;shape=endState;fillColor=#000000;strokeColor=#ff0000;" parent="1" vertex="1">
          <mxGeometry x="205" y="340" width="30" height="30" as="geometry" />
        </mxCell>
        <mxCell id="fG3WsD9q_cIxLBwufDan-58" value="" style="edgeStyle=orthogonalEdgeStyle;html=1;verticalAlign=bottom;endArrow=open;endSize=8;strokeColor=#ff0000;" parent="1" source="fG3WsD9q_cIxLBwufDan-42" target="fG3WsD9q_cIxLBwufDan-60" edge="1">
          <mxGeometry relative="1" as="geometry">
            <mxPoint x="390" y="210" as="targetPoint" />
            <mxPoint x="290" y="70" as="sourcePoint" />
            <Array as="points">
              <mxPoint x="340" y="130" />
              <mxPoint x="390" y="130" />
            </Array>
          </mxGeometry>
        </mxCell>
        <mxCell id="fG3WsD9q_cIxLBwufDan-59" value="&lt;div&gt;[Keine Mängel&lt;br&gt;&lt;/div&gt;&lt;div&gt;vorhanden]&lt;br&gt;&lt;/div&gt;" style="edgeLabel;html=1;align=center;verticalAlign=middle;resizable=0;points=[];" parent="fG3WsD9q_cIxLBwufDan-58" vertex="1" connectable="0">
          <mxGeometry x="-0.3" y="3" relative="1" as="geometry">
            <mxPoint x="37" y="33" as="offset" />
          </mxGeometry>
        </mxCell>
        <mxCell id="fG3WsD9q_cIxLBwufDan-60" value="&lt;div&gt;Qualitätskontrolle&lt;/div&gt;&lt;div&gt;als abgeschlossen markieren&lt;br&gt;&lt;/div&gt;" style="rounded=1;whiteSpace=wrap;html=1;arcSize=40;fontColor=#000000;fillColor=#ffffc0;strokeColor=#ff0000;" parent="1" vertex="1">
          <mxGeometry x="325" y="250" width="120" height="40" as="geometry" />
        </mxCell>
        <mxCell id="nBok-k7b-bNv9QMP69nb-1" value="Immer noch Mängel vorhanden" style="rounded=1;whiteSpace=wrap;html=1;arcSize=40;fontColor=#000000;fillColor=#ffffc0;strokeColor=#ff0000;" parent="1" vertex="1">
          <mxGeometry x="325" y="320" width="120" height="40" as="geometry" />
        </mxCell>
        <mxCell id="nBok-k7b-bNv9QMP69nb-2" value="" style="edgeStyle=orthogonalEdgeStyle;html=1;verticalAlign=bottom;endArrow=open;endSize=8;strokeColor=#ff0000;" parent="1" source="nBok-k7b-bNv9QMP69nb-1" target="fG3WsD9q_cIxLBwufDan-3" edge="1">
          <mxGeometry relative="1" as="geometry">
            <mxPoint x="385" y="460" as="targetPoint" />
            <Array as="points">
              <mxPoint x="720" y="340" />
              <mxPoint x="720" y="-710" />
            </Array>
          </mxGeometry>
        </mxCell>
        <mxCell id="nBok-k7b-bNv9QMP69nb-3" value="" style="edgeStyle=orthogonalEdgeStyle;html=1;verticalAlign=bottom;endArrow=open;endSize=8;strokeColor=#ff0000;" parent="1" source="fG3WsD9q_cIxLBwufDan-60" target="nBok-k7b-bNv9QMP69nb-1" edge="1">
          <mxGeometry relative="1" as="geometry">
            <mxPoint x="395" y="470" as="targetPoint" />
            <mxPoint x="395" y="410" as="sourcePoint" />
          </mxGeometry>
        </mxCell>
        <mxCell id="8QIDqFDlJOQkvqIUIz7g-1" value="Pizza backen" style="shape=umlFrame;whiteSpace=wrap;html=1;width=110;height=20;" vertex="1" parent="1">
          <mxGeometry x="40" y="-1080" width="700" height="1490" as="geometry" />
        </mxCell>
      </root>
    </mxGraphModel>
  </diagram>
</mxfile>
